<svg xmlns="http://www.w3.org/2000/svg" xmlns:xlink="http://www.w3.org/1999/xlink" viewBox="0 0 166 206">
  <defs>
    <path id="rachel-a" d="M18.9004941,30.9619773 C25.9340786,30.4175445 29,23.5213955 29,17.7141122 C29,14.7554839 28.5651535,10.0433181 25.9340786,6.64397829 C23.4008015,3.37099302 18.7403067,1.36738111 15.1131793,0.655217333 C7.7188982,-0.796603504 -2.38060775,-0.978081108 0.50496538,12.6327392 C3.39053851,26.2435596 11.8669096,31.5064101 18.9004941,30.9619773 Z"/>
    <path id="rachel-b" d="M20.6631629,33 C25.4411916,33 30.5579316,31.5263056 33.5323257,27.9798993 C37.1011897,23.7246993 38.4262327,18.2982765 37.8824653,12.5610185 C36.2511629,1.80365989 20.1193954,-0.168522535 16.8567908,0.0107667756 C13.5941861,0.190056087 0,2.05975302 0,11.664572 C0,21.269391 10.1521565,33 20.6631629,33 Z"/>
  </defs>
  <g fill="none" fill-rule="evenodd" transform="matrix(-1 0 0 1 166 0)">
    <path fill="#000" d="M125.2152,121.498736 L118.436494,140.458386 C111.762092,138.392271 108.42489,144.104473 108.42489,157.594993 C108.42489,171.085513 104.949927,180.383034 98,185.487555 C99.2491404,198.822522 102.724104,205.32667 108.42489,205 C111.896192,204.801085 129.0399,207.676816 141.5,202.5 C148.333338,199.660943 154.5,192.57555 154.5,185.487555 C154.5,163.664407 147.588309,150.30282 147.588309,140.458386 C147.588309,123.421201 162.859466,111.904811 165,89.0485663 C167.140534,66.1923214 153.078508,34.9041814 147.588309,26.4502852 C142.09811,17.9963891 132.947779,3.47844639 108.42489,1.10833604 C83.9020023,-1.26177432 75.3344623,0.0213798289 60.3594759,6.39550529 C45.3844894,12.7696308 39.9355576,25.0923111 34.8935279,34.9041814 C31.5321747,41.4454283 27.6237319,56.394383 23.1681993,79.7510457 C24.0605856,95.0144256 24.0605856,105.952685 23.1681993,112.565824 C21.8296199,122.485533 19.1376176,120.222606 16.2062855,131.34317 C13.2749533,142.463734 20.0987349,150.30692 19.5040341,157.594993 C18.9093334,164.883066 15.8865832,167.412248 12.7253286,169.991687 C10.6178255,171.711313 6.70938266,173.595125 1,175.643121 C0.410276276,191.495027 3.07694294,200.44732 9,202.5 C17.8845856,205.57902 36.1759857,204.140739 42.5882748,202.5 C49.0005638,200.859261 58.7106015,183.664512 60.3594759,173.273165 C62.0083502,162.881819 35.9709801,75.8450264 42.5882748,52.7700054 C51.0958199,23.1035342 83.0773,33.4457468 91.3216716,37.2741377 C99.5660433,41.1025285 112.595759,54.4968847 121.734243,89.0485663 C123.508976,95.7586519 124.669295,106.575375 125.2152,121.498736 Z"/>
    <path fill="#ECECEC" d="M33.5837551,79.9283507 L34.4958725,116.031177 C34.624492,117.204119 35.1109546,118.60204 35.9552602,120.22494 C37.2217188,122.659289 37.1477115,122.542016 38.1443419,124.783377 C38.8740358,126.424415 39.432557,127.793661 40.3334236,130.071165 C40.8565303,131.393645 42.1130733,134.883976 43.7994695,138.45869 C45.0172953,141.040159 47.2773172,145.399455 47.8127859,148.304916 C49.0897502,155.233741 49.3939385,160.453124 49.6370206,162.162566 C50.1044603,165.449772 51.4004763,166.989748 52.9206431,168.909054 C55.2313404,171.826454 59.0622333,173.467492 64.4133218,173.832167 C77.7910431,174.926192 90.0742235,170.67165 101.262863,161.068541 C112.451503,151.465432 120.964598,138.580249 126.802149,122.41299 C129.84254,122.41299 132.396469,121.68364 134.463935,120.22494 C135.801458,119.281251 138.794561,116.244725 141.760874,110.925727 C142.840103,108.990524 144.421106,105.404553 146.503884,100.167814 C147.579022,95.4263059 146.906703,92.3578679 144.486925,90.9625 C139.743914,88.2274374 136.526346,93.3158163 135.193629,95.0623638 C132.48299,98.6147008 130.952933,100.812814 130.085772,100.167814 C127.823816,98.4853577 128.626384,87.4041885 123.883374,75.5522506 C122.172128,71.2761536 116.395385,61.7338241 106.553144,46.9252621 C98.4048954,36.9574784 91.5336113,31.2442365 85.9392915,29.7855364 C66.278238,24.658983 50.0018676,31.426574 44.1643165,39.2670868 C38.3267654,47.1075996 39.5344402,55.8136771 36.3201072,64.2473252 C35.347182,66.8000503 34.4350646,69.231217 33.5837551,71.5408254 C33.0972925,72.8779672 32.914869,74.2151089 33.0364847,75.5522506 C33.1581003,76.8893923 33.3405238,78.3480924 33.5837551,79.9283507 Z"/>
    <path fill="#000" d="M34.780019 77.3043377C33.6870521 77.1159318 32.411924 77.4927436 32.0476017 76.1739021 31.7462147 75.0828855 32.9603565 73.2843393 33.3227298 73.1594073 33.8692132 72.9710014 35.0096424 72.8623198 36.2373082 73.3478132 42.4307873 75.7970903 48.8064275 79.960336 51.1745225 82.0144859 52.7929013 83.4183116 55.016593 85.0825731 54.9999066 86.3478222 54.9955332 86.6794418 54.3883293 88.5635011 53.1782951 92 50.0208352 87.2270499 47.0455364 83.8985451 44.2523988 82.0144859 41.9218762 80.442475 35.8729859 77.4927436 34.780019 77.3043377zM68.0203073 84.2793181C67.6585001 81.6780488 72.1810898 79.2625845 77.6081974 77.9619498 83.035305 76.6613152 87.1476787 76.6975126 93.7086166 77.9619498 95.2536572 78.2597132 99.903354 79.0577135 104.201025 82.0377318 105.29544 82.7966028 106.561765 84.410888 108 86.8805874 99.5242077 84.3844198 92.8006244 83.0218502 87.8292501 82.7928785 83.9308106 82.6133241 77.3299978 85.5548972 71.2765719 86.8805874 69.6105381 87.245446 68.3821145 86.8805874 68.0203073 84.2793181z"/>
    <path stroke="#4A4A4A" stroke-linecap="square" d="M56.8479344,94 C54.2516863,103.460561 52.4225116,109.767602 51.3604101,112.921122 C50.1967086,116.376307 46.9319589,120.919988 48.3511225,123.837155 C48.8821733,124.928758 51.6565996,128.19376 56.8479344,128.931303 C58.8602438,129.217196 62.577599,128.61075 68,127.111964"/>
    <path fill="#03051B" d="M61.9461078,98.6800386 C67.6686627,113.795466 75.2175649,121.776412 84.5928144,122.622876 C97.1337325,124.678574 105.413174,118.330094 109.431138,103.577437 C110.108299,102.217637 110.717082,101.371173 111.257485,101.038045 C111.797888,100.704918 112.954575,100.463071 114.727545,100.312505 L135,94.3267955 L135,85.2575391 L114.727545,92.5129443 C112.983072,92.6458873 111.826385,92.6458873 111.257485,92.5129443 C110.688585,92.3800012 109.775411,91.8963076 108.517964,91.0618632 C102.43014,87.1923138 96.0988024,84.7133838 89.5239521,83.625073 C79.6616766,81.9926068 72.9056492,84.7769763 61.9461078,87.9783161 C58.8413174,88.8852417 58.2934132,88.7038566 54.2754491,87.9783161 C49.7095808,85.2575391 39.2994012,80.3601407 34.9161677,79.6346002 C30.5329341,78.9090597 27.8565555,78.6758692 23.9580838,79.6346002 C21.3591027,80.2737541 18.6195818,81.8457586 15.739521,84.3506135 L13,85.2575391 L13.9131737,91.0618632 C15.1852977,91.4403484 16.1593496,92.2263506 16.8353293,93.4198699 C17.3139451,94.2649207 18.1865246,97.3676627 19.757485,101.077617 C20.1893567,102.097519 21.1634086,103.837717 22.6796407,106.298214 C25.1147705,110.651457 28.9500998,113.795466 34.1856287,115.730241 C44.5958084,119.176558 49.7095808,111.195612 50.4401198,110.288687 C51.1706587,109.381761 51.9824631,107.567653 52.4491018,106.298214 C52.7601943,105.451921 53.6124897,102.610221 55.005988,97.773113 C54.1536926,97.1684959 53.7275449,96.4429554 53.7275449,95.5964914 C53.7275449,94.7500275 54.3972056,94.024487 55.7365269,93.4198699 C56.4913165,93.2633661 57.4044901,93.2633661 58.4760479,93.4198699 C59.5476057,93.5763737 60.4607794,93.8786823 61.2155689,94.3267955 C62.0678643,94.6895658 62.6157685,95.3546446 62.8592814,96.322032 C63.1027944,97.2894193 62.7984032,98.0754215 61.9461078,98.6800386 Z"/>
    <g transform="translate(20 83)">
      <use fill="#9B9B9B" xlink:href="#rachel-a"/>
    </g>
    <path fill="#9B9B9B" d="M59.8600746,150.886923 C54.714427,150.324358 53.7955613,148.824185 51.95783,146.386403 C50.1200987,143.948621 48.8336868,133.634929 49.0174599,134.009972 C49.201233,134.385016 54.5306538,136.072711 56.5521583,137.010319 C57.8998279,137.635391 59.0024667,138.135449 59.8600746,138.510492 C63.5278315,138.089841 66.590717,137.964826 69.0487312,138.135449 C72.7357524,138.391383 83.0154891,139.448101 87.2422711,140.010666 C89.2096879,140.27252 87.0539407,140.746192 84.1181279,142.260926 C80.7466647,144.000433 76.2219422,146.848303 73.6430594,147.886576 C68.8185293,149.828961 65.0057223,151.449488 59.8600746,150.886923 Z"/>
    <path fill="#D8D8D8" d="M51,137 C55.5985552,142.101428 59.0765093,144.76035 61.4338624,144.976765 C63.7912155,145.19318 71.6465947,143.897808 85,141.090649 C74.0925329,143.0908 66.6569068,143.90893 62.6931217,143.545038 C58.7293366,143.181146 54.8316293,140.999466 51,137 Z"/>
    <g transform="translate(66 87)">
      <use fill="#9B9B9B" xlink:href="#rachel-b"/>
    </g>
    <path fill="#D8D8D8" d="M134.09002,103.745163 C134.356596,107.084352 130.713394,113.938477 132.490566,111.478022 C134.267737,109.017567 136.133768,108.666074 137.200071,107.084352 C138.266374,105.502631 139.154959,103.745163 138.977242,102.163442 C138.799525,100.581721 138.088657,99 137.200071,99 C136.311485,99 133.823445,100.405974 134.09002,103.745163 Z"/>
  </g>
</svg>
