<svg xmlns="http://www.w3.org/2000/svg" viewBox="0 0 674 854">
  <g fill="none" fill-rule="evenodd" transform="matrix(-1 0 0 1 674 0)">
    <path fill="#D8D8D8" d="M334.342368,834 C455.114123,842 529.333333,819.833333 557,767.5 C579.718601,724.526262 614.819667,652.089653 631,574 C635.409482,552.718923 638.409482,524.218923 640,488.5 C647.486613,467.107844 651.819946,451.941177 653,443 C654.180054,434.058823 654.180054,416.392156 653,390 C657,365.694444 659,347.194444 659,334.5 C659,321.805556 657,298.472222 653,264.5 C635.893735,226.149499 623.393735,200.316166 615.5,187 C584.232812,134.254495 556.90016,105.429432 532.5,92.5 C498.859719,74.6743077 421.193052,60.507641 299.5,50 L27,285 C10.0379091,372.418372 5.53790911,430.585038 13.5,459.5 C20.50633,484.944041 41.996202,505.291719 77.9696159,520.543036 C81.2411319,521.93003 86.4179266,523.915685 93.5,526.5 C100.221558,606.537736 115.054891,661.204403 138,690.5 C154.070671,711.01853 190.229845,753.793909 248,792.5 C264.474622,803.538022 293.255411,817.371355 334.342368,834 Z"/>
    <path stroke="#4A4A4A" stroke-linecap="square" d="M550,399.5 L556.25,491 C560.416667,502.333333 562.5,511.666667 562.5,519 C562.5,526.333333 560.416667,532.5 556.25,537.5 C552.083333,540.833333 545.333333,543.666667 536,546 C526.666667,548.333333 516.666667,549.5 506,549.5 C487.772415,544.865305 475.272415,540.865305 468.5,537.5 C452.057422,529.329459 441.950211,517.768168 435,513"/>
    <path fill="#000" d="M167.5,412 L275.5,582.5 C291.5,540.833333 318,520 355,520 C392,520 434.833333,530.166667 483.5,550.5 C517.5,556.166667 541.833333,568.833333 556.5,588.5 C571.166667,608.166667 587.666667,633.333333 606,664 C571.013537,758.19112 539.513537,815.024453 511.5,834.5 C483.486463,853.975547 433.486463,858.475547 361.5,848 C327.481617,837.73718 303.81495,829.570513 290.5,823.5 C223.688038,793.039287 181.262122,750.654262 159,724 C137.204674,697.904629 105.012819,646.897498 96,582.5 C94.0366809,568.471887 92.2033476,547.638554 90.5,520 L124.5,455.5 L102.5,312.5 C90.1666667,291.833333 75.1666667,284 57.5,289 C39.8333333,294 31,312.833333 31,345.5 C33.6122677,393.149557 36.945601,425.649557 41,443 C47.0815984,469.025664 51.5,473.5 65,491 C74,502.666667 82.5,512.333333 90.5,520 C104.166667,551 111,576 111,595 C111,623.5 65,596.5 51.5,575 C38,553.5 -15,407 4.5,320.5 C24,234 77.4571731,129.649559 189.5,58.5 C301.542827,-12.6495589 374.115027,-8.53761166 465.5,21 C556.884973,50.5376117 646.5,162.5 661,205.5 C675.5,248.5 675.5,285 672,312.5 C669.666667,330.833333 664.166667,353.666667 655.5,381 C657.042743,294.599933 647.376076,236.099933 626.5,205.5 C612.932049,185.612241 603.769879,156.541786 562.5,133.5 C547.680496,125.225979 515.347162,114.892646 465.5,102.5 L331.5,84 L270.5,130.5 L279.5,196.5 L262.5,220.5 L203.5,295.5 L203.5,337 L167.5,412 Z"/>
    <path fill="#FFF" d="M555.5,429.549062 C555.5,431.433622 563.713508,436.459115 580.140523,444.625541 C586.736586,447.904668 602.689745,454.029488 628,463 C621.050109,442.269841 609.835512,429.549062 594.356209,424.837662 C578.876906,420.126263 565.924837,421.696729 555.5,429.549062 Z"/>
    <path fill="#34464B" d="M564.01768,436.130359 C564.220097,431.16108 566.14933,426.636932 569.221399,423.141894 C576.689745,421.44538 585.068015,422.010636 594.356209,424.837662 C598.020717,425.95302 601.446215,427.517255 604.632701,429.530367 C605.516196,431.85117 606,434.369086 606,437 C606,443.13269 603.371194,448.651389 599.178961,452.49072 C590.070517,449.02892 583.724371,446.407193 580.140523,444.625541 C573.371667,441.260513 567.997386,438.428786 564.01768,436.130359 Z"/>
    <circle cx="586" cy="435" r="8" fill="#000"/>
    <path fill="#FFF" d="M350,352.283148 C363.008359,357.390054 375.008359,362.092863 386,366.391574 C396.991641,370.690285 416.491641,377.82081 444.5,387.783148 C441.5,379.594383 438.333333,373.594383 435,369.783148 C423.476534,356.607558 411.122754,350.159588 402,347 C389.755909,342.759364 372.422576,344.520413 350,352.283148 Z"/>
    <path fill="#34464B" d="M375.42718,345.677894 C386.062971,344.049677 395.003911,344.490379 402.25,347 C403.750459,347.519671 405.343285,348.123499 407.011297,348.827893 C410.735337,352.986131 413,358.478595 413,364.5 C413,368.455982 412.0225,372.183657 410.29586,375.454667 C398.73029,371.410904 389.965004,368.222598 384,365.88975 C378.230448,363.633341 372.458592,361.285677 366.684434,358.846758 C368.004159,353.502785 371.152347,348.879226 375.42718,345.677894 Z"/>
    <circle cx="391" cy="359" r="8" fill="#000"/>
    <path fill="#000" stroke="#000" stroke-linecap="square" d="M294 322L382 277C415.692787 282.720325 440.02612 289.720325 455 298 469.97388 306.279675 488.140546 322.779675 509.5 347.5L481 353C449.245956 329.466826 422.829289 316.80016 401.75 315 380.670711 313.19984 346.587378 320.69984 299.5 337.5L294 322zM583.5 366L567.5 396.5C605.821836 397.262449 629.821836 404.095782 639.5 417 649.178164 429.904218 651.678164 446.404218 647 466.5 654.333333 453.833333 658 441 658 428 658 408.5 655.081388 402.089406 647 391.5 637.333333 378.833333 616.166667 370.333333 583.5 366z"/>
    <path fill="#9B9B9B" d="M334,586 C345.889327,599.974507 354.889327,609.641174 361,615 C396.392544,646.037908 421.559664,654.5 448.5,663 C475.440336,671.5 493,673.5 506,667 C519,660.5 521.5,657 525,652.5 C527.333333,649.5 529.666667,644.166667 532,636.5 C532,632.5 528.166667,626.666667 520.5,619 C513.816973,612.316973 498.688659,599.60532 488,598 C477.223127,596.381431 467,601.477532 467,598 C467,583.519364 411,575 395,575 C365.149879,575 344.816545,578.666667 334,586 Z"/>
    <path fill="#FFF" d="M340,587 C375.951168,585.571745 417.117834,592.405078 463.5,607.5 C494.166667,617.480365 509.833333,625.813698 510.5,632.5 L497.5,654.5 C487.666748,651.312968 480.166748,648.812968 475,647 C459.15373,641.439678 394,620.657407 367.5,607.5 C351.496837,599.554335 342.330171,592.721002 340,587 Z"/>
    <path stroke="#000" stroke-linecap="square" d="M350.5 351.5C367.833333 344.5 385.333333 343.166667 403 347.5 420.666667 351.833333 434.666667 365.333333 445 388M556 429C568.333333 422 581.5 420.833333 595.5 425.5 609.5 430.166667 620.5 442.666667 628.5 463"/>
    <polygon fill="#000" points="83.5 523.5 93.5 603.5 117.5 615.5 108 515.5"/>
  </g>
</svg>
